<?xml version="1.0" encoding="utf-8"?>
<!-- Generator: Adobe Illustrator 15.0.0, SVG Export Plug-In  -->
<!DOCTYPE svg PUBLIC "-//W3C//DTD SVG 1.1//EN" "http://www.w3.org/Graphics/SVG/1.1/DTD/svg11.dtd" [
	<!ENTITY ns_flows "http://ns.adobe.com/Flows/1.0/">
]>
<svg version="1.1"
	 xmlns="http://www.w3.org/2000/svg" xmlns:xlink="http://www.w3.org/1999/xlink" xmlns:a="http://ns.adobe.com/AdobeSVGViewerExtensions/3.0/"
	 x="0px" y="0px" width="250px" height="68px" viewBox="0 0 250 68" overflow="visible" enable-background="new 0 0 250 68"
	 xml:space="preserve">
<defs>
</defs>
<path fill="#FFFFFF" d="M110.773,34.356c0,2.833-0.264,5.281-0.795,7.33c-0.533,2.057-1.404,3.737-2.632,5.053
	c-1.229,1.317-2.857,2.288-4.875,2.92c-2.025,0.632-4.524,0.943-7.513,0.943H80.4c-0.498,0-0.745-0.233-0.745-0.701V18.849
	c0-0.475,0.247-0.709,0.745-0.709h14.557c2.989,0,5.488,0.32,7.513,0.951c2.018,0.623,3.646,1.6,4.875,2.92
	c1.229,1.316,2.101,2.992,2.632,5.027C110.509,29.076,110.773,31.512,110.773,34.356z M102.818,34.371
	c0-2.272-0.148-4.135-0.447-5.579c-0.291-1.442-0.781-2.583-1.468-3.413c-0.68-0.83-1.584-1.396-2.694-1.708
	c-1.118-0.302-2.487-0.457-4.102-0.457h-6.756v22.324h6.756c1.615,0,2.983-0.154,4.102-0.458c1.111-0.31,2.015-0.876,2.695-1.706
	c0.687-0.831,1.176-1.971,1.467-3.415C102.67,38.512,102.818,36.652,102.818,34.371z"/>
<path fill="#FFFFFF" d="M128.509,31.778c-0.074,0.171-0.315,0.264-0.722,0.264c-1.37,0-2.598,0.055-3.686,0.171
	c-1.088,0.117-1.835,0.218-2.232,0.312v17.424c0,0.435-0.25,0.652-0.748,0.652h-5.698c-0.149,0-0.316-0.054-0.49-0.171
	c-0.166-0.118-0.254-0.281-0.254-0.484V30.732c0-0.641,0.17-1.122,0.512-1.426c0.348-0.313,0.873-0.593,1.587-0.858
	c0.717-0.234,1.586-0.429,2.616-0.568c1.03-0.148,2.033-0.296,3.029-0.445c0.657-0.085,1.379-0.17,2.167-0.265
	c0.798-0.086,1.577-0.14,2.358-0.171h0.424c0.246,0,0.422,0.019,0.531,0.045c0.108,0.037,0.241,0.111,0.398,0.212
	c0.059,0.055,0.133,0.141,0.208,0.241c0.083,0.101,0.115,0.258,0.115,0.46v3.205C128.626,31.396,128.594,31.599,128.509,31.778z"/>
<path fill="#FFFFFF" d="M150.298,49.226c-1.795,1.304-4.615,1.96-8.481,1.96c-1.839,0-3.453-0.141-4.831-0.423
	c-1.389-0.28-2.543-0.732-3.485-1.366c-0.931-0.631-1.637-1.482-2.119-2.551c-0.483-1.068-0.724-2.396-0.724-3.981V28.827
	c0-0.615,0.273-0.968,0.839-1.057l5.315-0.841h0.233c0.53,0,0.798,0.266,0.798,0.797v15.403c0,1.171,0.273,2.062,0.815,2.661
	c0.55,0.601,1.601,0.902,3.159,0.902c0.841,0,1.532-0.091,2.058-0.262c0.532-0.179,0.941-0.428,1.217-0.747
	c0.282-0.329,0.473-0.702,0.566-1.146c0.091-0.437,0.142-0.904,0.142-1.401V28.845c0-0.587,0.272-0.943,0.838-1.061l5.314-0.786
	c0.067-0.045,0.141-0.069,0.233-0.069c0.53,0,0.797,0.267,0.797,0.797v15.093C152.983,45.784,152.085,47.915,150.298,49.226z"/>
<path fill="#FFFFFF" d="M180.109,39.081c0,1.585-0.113,3.105-0.349,4.572c-0.231,1.468-0.694,2.765-1.389,3.881
	c-0.701,1.112-1.713,1.996-3.043,2.66c-1.331,0.654-3.085,0.992-5.25,0.992c-1.242,0-2.392-0.08-3.441-0.223
	c-1.051-0.144-2.018-0.339-2.885-0.573l0.512,2.771v4.789c0,0.617-0.274,0.967-0.84,1.062l-5.314,0.833h-0.232
	c-0.531,0-0.796-0.267-0.796-0.796V31.994c0-0.615,0.074-1.131,0.21-1.537c0.136-0.413,0.335-0.748,0.584-1.015
	c0.249-0.265,0.562-0.481,0.952-0.662c0.39-0.172,0.828-0.336,1.325-0.484c1.491-0.437,3.08-0.771,4.771-1.013
	c1.687-0.236,3.328-0.354,4.91-0.354c2.293,0,4.123,0.313,5.49,0.93c1.366,0.617,2.4,1.468,3.113,2.553
	c0.712,1.084,1.176,2.365,1.375,3.847C180.008,35.742,180.109,37.349,180.109,39.081z M172.795,38.88
	c0-1.685-0.083-3.019-0.254-4.008c-0.168-0.99-0.432-1.731-0.786-2.23c-0.355-0.503-0.808-0.826-1.37-0.958
	c-0.553-0.128-1.238-0.197-2.039-0.197c-0.462,0-0.933,0.041-1.419,0.111c-0.478,0.078-0.917,0.142-1.32,0.202
	c-0.461,0.088-0.907,0.175-1.344,0.26v14.168c0.345,0.095,0.701,0.165,1.073,0.221c0.338,0.062,0.718,0.109,1.129,0.132
	c0.42,0.031,0.891,0.048,1.419,0.048c0.922,0,1.708-0.095,2.342-0.291c0.627-0.188,1.139-0.559,1.527-1.108
	c0.387-0.54,0.66-1.326,0.807-2.338C172.72,41.87,172.795,40.536,172.795,38.88z"/>
<path fill="#FFFFFF" d="M204.337,48.034c-0.172,0.514-0.432,0.935-0.791,1.255c-0.358,0.328-0.828,0.578-1.401,0.749
	c-0.574,0.182-1.27,0.352-2.074,0.53c-0.872,0.202-1.852,0.359-2.939,0.461c-1.085,0.101-2.314,0.157-3.683,0.157
	s-2.722-0.08-4.075-0.223c-1.353-0.146-2.563-0.475-3.643-0.976c-1.071-0.491-1.951-1.242-2.63-2.244
	c-0.68-0.999-1.03-2.369-1.03-4.104c0-1.408,0.225-2.541,0.658-3.396c0.439-0.851,1-1.507,1.68-1.976
	c0.692-0.479,1.467-0.814,2.341-1.018c0.874-0.204,1.733-0.367,2.573-0.484l8.086-1.236v-1.197c0-0.591-0.066-1.08-0.192-1.466
	c-0.124-0.386-0.429-0.701-0.929-0.939c-0.624-0.29-1.727-0.44-3.313-0.44c-0.747,0-1.51,0.056-2.307,0.156
	c-0.795,0.102-1.543,0.219-2.259,0.353c-0.722,0.133-1.36,0.265-1.942,0.396c-0.574,0.133-1.013,0.226-1.328,0.279
	c-0.125,0.063-0.233,0.095-0.323,0.095c-0.313,0-0.483-0.132-0.515-0.398l-0.699-3.009c-0.034-0.054-0.049-0.124-0.049-0.216
	c0-0.2,0.067-0.346,0.192-0.431c0.125-0.086,0.249-0.161,0.373-0.215c0.25-0.092,0.697-0.223,1.353-0.392
	c0.647-0.176,1.436-0.346,2.348-0.522c0.922-0.178,1.952-0.322,3.106-0.453c1.147-0.131,2.35-0.201,3.589-0.201
	c1.65,0,3.052,0.11,4.198,0.337c1.155,0.219,2.118,0.53,2.891,0.943c1.188,0.586,1.975,1.374,2.383,2.357
	c0.406,0.984,0.606,2.087,0.606,3.315v12.104C204.594,46.837,204.51,47.526,204.337,48.034z M197.471,39.632l-4.973,0.749
	c-0.43,0.064-0.853,0.143-1.258,0.243c-0.396,0.103-0.754,0.267-1.067,0.485c-0.307,0.218-0.545,0.53-0.72,0.931
	c-0.173,0.39-0.257,0.913-0.257,1.562c0,0.766,0.147,1.375,0.439,1.828c0.298,0.453,0.661,0.788,1.101,1.016
	c0.43,0.219,0.909,0.36,1.439,0.414c0.521,0.062,1.019,0.086,1.49,0.086c0.859,0,1.636-0.055,2.315-0.173
	c0.688-0.116,1.184-0.218,1.491-0.312V39.632z"/>
<path fill="#FFFFFF" d="M220.615,49.672c0,0.234-0.067,0.405-0.192,0.506c-0.125,0.102-0.216,0.156-0.274,0.156
	c-0.225,0.086-0.68,0.217-1.377,0.388c-0.697,0.18-1.736,0.265-3.105,0.265c-2.392,0-4.152-0.566-5.273-1.713
	c-1.113-1.135-1.677-2.631-1.677-4.477V19.327c0-0.297,0.048-0.507,0.141-0.641c0.091-0.131,0.299-0.226,0.607-0.287l5.415-0.834
	h0.234c0.529,0,0.787,0.25,0.787,0.748v25.869c0,0.764,0.199,1.286,0.588,1.556c0.383,0.282,0.799,0.423,1.23,0.423
	c0.373,0,0.689-0.016,0.939-0.047c0.248-0.032,0.463-0.053,0.647-0.086c0.032,0,0.057-0.008,0.073-0.023
	c0.018-0.015,0.04-0.024,0.066-0.024c0.317,0,0.498,0.181,0.565,0.53l0.607,3.029V49.672z"/>
<g>
	<g>
		<g>
			<path fill="#FFFFFF" d="M226.548,47.643c0.471,0,0.855,0.666,0.855,1.479c0,0.814-0.385,1.479-0.855,1.479
				s-0.855-0.665-0.855-1.479C225.693,48.309,226.078,47.643,226.548,47.643z"/>
		</g>
		<g>
			<path fill="#FFFFFF" d="M238.855,37.299L238.855,37.299c0,0.895-0.749,1.326-1.664,0.959c0,0-0.491-0.197-1.414-0.197
				c-1.318,0-2.391,0.534-3.217,1.595c-0.825,1.06-1.244,2.442-1.244,4.139c0,1.729,0.419,3.105,1.244,4.119
				c0.826,1.02,1.936,1.53,3.328,1.53c1.006,0,2.076-0.267,3.189-0.794l0,0c0,0.838-0.771,1.759-1.714,2.047
				c0,0-0.571,0.175-1.586,0.175c-1.725,0-3.129-0.639-4.195-1.904c-1.065-1.273-1.603-2.939-1.603-5.004
				c0-2.153,0.543-3.916,1.617-5.284c1.075-1.366,2.452-2.047,4.122-2.047C236.637,36.632,237.682,36.855,238.855,37.299z"/>
		</g>
		<g>
			<path fill="#FFFFFF" d="M248.104,36.903c0.986,0,1.816,0.104,1.844,0.23c0.028,0.126-0.39,0.904-0.93,1.729l-5.815,8.896
				c-0.54,0.825-0.175,1.5,0.812,1.5h4.192c0.986,0,1.793,0.302,1.793,0.671s-0.807,0.671-1.793,0.671h-6.153
				c-0.986,0-1.825-0.104-1.864-0.23s0.374-0.903,0.917-1.726l5.878-8.89c0.543-0.822,0.182-1.495-0.805-1.495h-3.767
				c-0.986,0-1.793-0.306-1.793-0.679s0.807-0.679,1.793-0.679H248.104z"/>
		</g>
	</g>
</g>
<path fill="#05598E" d="M44.324,12.583c-3.456-2.146-6.71-3.001-9.966-5.149c-2.025-1.37-4.826-4.625-7.174-7.426
	c-0.455,4.494-1.825,6.318-3.387,7.622c-3.325,2.606-5.41,3.393-8.273,4.954c-2.408,1.239-15.508,9.059-15.508,25.868
	c0,16.809,14.137,29.193,29.838,29.193c15.709,0,29.324-11.408,29.324-28.67C59.177,21.704,46.41,13.884,44.324,12.583z"/>
<path fill="#FFFFFF" d="M39.029,53.041c1.047,0,2.154,0.065,2.932,0.589c0.785,0.515,1.239,1.693,1.501,2.341
	c0.263,0.652,0,1.045-0.524,1.308c-0.454,0.262-0.521,0.131-0.977-0.717c-0.455-0.846-0.846-1.692-3.125-1.692
	c-2.278,0-3.001,0.776-4.106,1.692c-1.103,0.908-1.497,1.238-1.89,0.717c-0.393-0.523-0.261-1.048,0.455-1.693
	c0.714-0.654,1.895-1.693,3.001-2.157C37.404,52.975,37.99,53.041,39.029,53.041L39.029,53.041z"/>
<path fill="#FFFFFF" d="M28.215,60.47c1.301,1.041,3.255,1.886,7.428,1.886c4.171,0,7.103-1.169,8.404-2.146
	c0.584-0.456,0.846-0.07,0.917,0.191c0.061,0.263,0.191,0.655-0.262,1.11c-0.331,0.321-3.326,2.408-6.842,2.739
	c-3.517,0.322-8.273,0.515-11.145-2.086c-0.454-0.458-0.324-1.108,0-1.371c0.323-0.261,0.584-0.453,0.977-0.453
	S28.015,60.34,28.215,60.47L28.215,60.47z"/>
<path fill="#1476B7" d="M12.253,55.514c4.948-0.061,5.864-0.908,10.229-2.862c23.59-10.561,27.954-20.204,28.801-22.421
	c0.846-2.217,2.085-5.794,0.782-9.774c-0.25-0.761-0.437-1.378-0.57-1.874c-3.132-3.507-6.248-5.421-7.186-6.007
	c-3.386-2.146-6.71-2.993-9.966-5.149c-2.025-1.3-4.826-4.625-7.174-7.427c-0.454,4.494-1.754,6.389-3.387,7.628
	c-3.324,2.6-5.408,3.385-8.272,4.948C13.1,13.876,0,21.635,0,38.443c0,5.368,1.439,10.286,3.915,14.486l0.65-0.016
	C5.926,54.144,8.081,55.584,12.253,55.514z"/>
<path fill="#FFFFFF" d="M44.308,12.576c-3.386-2.146-6.71-2.993-9.966-5.149c-2.025-1.3-4.826-4.625-7.174-7.427
	c-0.454,4.494-1.754,6.389-3.387,7.628c-3.324,2.6-5.408,3.385-8.272,4.948C13.1,13.876,0,21.635,0,38.443
	c0,5.368,1.439,10.286,3.915,14.486c5.277,8.97,15.237,14.707,25.932,14.707c15.701,0,29.315-11.406,29.315-28.669
	c0-9.488-3.847-16.115-7.667-20.385C48.362,15.076,45.246,13.162,44.308,12.576z M52.228,20.203
	c4.278,5.353,6.445,11.662,6.445,18.765c0,4.119-0.779,8.01-2.333,11.567c-1.468,3.37-3.577,6.363-6.279,8.882
	c-5.338,4.982-12.525,7.73-20.213,7.73c-3.809,0-7.55-0.728-11.111-2.158c-3.498-1.414-6.648-3.428-9.37-5.998
	C3.64,53.576,0.488,46.282,0.488,38.443c0-6.98,2.261-13.181,6.734-18.433c3.414-4.011,7.096-6.235,8.518-7.009
	c0.688-0.369,1.34-0.708,1.968-1.027c1.968-1.012,3.826-1.962,6.38-3.97c1.363-1.03,2.812-2.673,3.431-6.837
	c2.149,2.559,4.645,5.442,6.557,6.674c1.693,1.12,3.432,1.898,5.111,2.657c1.589,0.717,3.23,1.458,4.857,2.495
	c0.003,0.001,0.066,0.031,0.066,0.031C48.865,15.996,51.396,19.163,52.228,20.203z"/>
<path fill="#8DC9EA" d="M27.5,1.3c0.907,2.671,0.776,4.041,0.776,4.626c0,0.593-0.323,2.155-1.361,2.933
	c-0.463,0.331-0.594,0.594-0.594,0.655c0,0.261,0.594,0.453,0.594,1.045c0,0.718-0.333,2.149-3.784,5.604
	c-3.45,3.447-8.408,6.511-12.248,8.404c-3.849,1.886-5.672,1.755-6.188,0.847c-0.524-0.916,0.191-2.933,2.601-5.603
	s10.036-6.52,10.036-6.52l9.513-6.642l0.524-2.548"/>
<path fill="#FFFFFF" d="M27.5,1.239c-0.585,4.303-1.895,5.604-3.649,6.974c-2.931,2.216-5.804,3.579-6.456,3.91
	c-1.696,0.846-7.813,4.232-11.006,9.12c-0.979,1.501,0,2.085,0.191,2.216c0.194,0.131,2.409,0.394,7.165-2.479
	c4.757-2.862,6.843-4.562,9.513-7.365c1.44-1.492,1.632-2.339,1.632-2.732c0-0.453-0.322-0.654-0.846-0.785
	c-0.263-0.061-0.323-0.191,0-0.393c0.323-0.191,1.693-0.846,2.017-1.1c0.33-0.261,1.893-1.309,1.954-3.002
	C28.084,3.91,27.953,2.74,27.5,1.239L27.5,1.239z"/>
<path fill="#FFFFFF" d="M12.838,48.612c0.06-5.09,4.816-9.846,10.812-9.906c7.629-0.069,12.907,7.558,16.748,7.496
	c3.255-0.068,9.513-6.458,12.576-6.458c3.256,0,4.172,3.395,4.172,5.411c0,2.025-0.656,5.674-2.217,7.951
	c-1.562,2.277-2.54,3.124-4.364,2.993c-2.348-0.193-7.042-7.487-10.036-7.62c-3.779-0.13-11.992,7.882-18.441,7.882
	c-3.909,0-5.079-0.585-6.39-1.431C13.745,53.559,12.767,51.473,12.838,48.612L12.838,48.612z"/>
<path fill="none" d="M52.064,20.457c1.303,3.98,0.064,7.558-0.782,9.774c-0.847,2.217-5.211,11.86-28.801,22.421
	c-4.364,1.954-5.28,2.802-10.229,2.862c-4.172,0.07-6.327-1.37-7.688-2.601l-0.65,0.016c5.277,8.97,15.237,14.707,25.932,14.707
	c15.701,0,29.315-11.406,29.315-28.669c0-9.488-3.847-16.115-7.667-20.385C51.627,19.079,51.814,19.696,52.064,20.457z"/>
</svg>
