<?xml version="1.0" encoding="utf-8"?>
<!-- Generator: Adobe Illustrator 15.0.0, SVG Export Plug-In . SVG Version: 6.00 Build 0)  -->
<!DOCTYPE svg PUBLIC "-//W3C//DTD SVG 1.1//EN" "http://www.w3.org/Graphics/SVG/1.1/DTD/svg11.dtd">
<svg version="1.1" id="Vrstva_1" xmlns="http://www.w3.org/2000/svg" xmlns:xlink="http://www.w3.org/1999/xlink" x="0px" y="0px"
	 width="330px" height="50px" viewBox="-40 9 330 50" enable-background="new -40 9 330 50" xml:space="preserve">
<g>
	<path fill="#00598D" d="M-7.237,18.301c-2.555-1.587-4.96-2.218-7.367-3.807c-1.497-1.012-3.567-3.418-5.303-5.488
		c-0.335,3.322-1.348,4.67-2.503,5.633c-2.458,1.926-3.999,2.507-6.115,3.662c-1.781,0.916-11.463,6.696-11.463,19.119
		c0,12.426,10.45,21.58,22.055,21.58c11.612,0,21.675-8.434,21.675-21.191C3.742,25.042-5.695,19.261-7.237,18.301z"/>
	<path fill="#FFFFFF" d="M-11.151,48.205c0.774,0,1.593,0.049,2.167,0.436c0.58,0.379,0.916,1.252,1.109,1.73
		c0.194,0.482,0,0.771-0.387,0.967c-0.336,0.193-0.385,0.096-0.723-0.531c-0.336-0.625-0.625-1.25-2.31-1.25
		c-1.684,0-2.219,0.572-3.035,1.25c-0.815,0.672-1.107,0.916-1.397,0.531c-0.291-0.389-0.193-0.775,0.336-1.252
		c0.529-0.484,1.4-1.252,2.219-1.594C-12.353,48.156-11.919,48.205-11.151,48.205L-11.151,48.205z"/>
	<path fill="#FFFFFF" d="M-19.145,53.697c0.962,0.768,2.407,1.393,5.491,1.393c3.083,0,5.25-0.863,6.212-1.586
		c0.432-0.338,0.625-0.053,0.677,0.141c0.044,0.195,0.142,0.484-0.194,0.82c-0.244,0.238-2.458,1.779-5.057,2.025
		c-2.6,0.238-6.115,0.381-8.238-1.541c-0.335-0.34-0.239-0.82,0-1.014s0.432-0.336,0.722-0.336
		C-19.242,53.6-19.292,53.6-19.145,53.697L-19.145,53.697z"/>
	<path fill="#1075B6" d="M-30.943,50.033c3.657-0.045,4.334-0.672,7.56-2.115C-5.946,40.111-2.72,32.984-2.095,31.345
		s1.542-4.283,0.578-7.225c-0.185-0.562-0.323-1.019-0.421-1.385c-2.315-2.592-4.618-4.007-5.311-4.44
		c-2.503-1.586-4.96-2.212-7.367-3.806c-1.498-0.96-3.567-3.418-5.303-5.489c-0.335,3.322-1.296,4.722-2.503,5.637
		c-2.457,1.922-3.998,2.503-6.115,3.658C-30.317,19.256-40,24.991-40,37.416c0,3.967,1.064,7.602,2.894,10.707l0.48-0.014
		C-35.62,49.02-34.027,50.086-30.943,50.033z"/>
	<path fill="#FFFFFF" d="M-7.249,18.295c-2.503-1.586-4.96-2.212-7.367-3.806c-1.498-0.96-3.567-3.418-5.303-5.489
		c-0.335,3.322-1.296,4.722-2.503,5.637c-2.457,1.922-3.998,2.503-6.115,3.658C-30.317,19.256-40,24.991-40,37.416
		c0,3.967,1.064,7.602,2.894,10.707c3.9,6.629,11.263,10.871,19.167,10.871c11.606,0,21.669-8.432,21.669-21.191
		c0-7.013-2.844-11.913-5.668-15.068C-4.253,20.143-6.556,18.728-7.249,18.295z M-1.396,23.932c3.163,3.956,4.764,8.62,4.764,13.871
		c0,3.043-0.576,5.92-1.724,8.549C0.558,48.844-1,51.057-2.998,52.918c-3.946,3.682-9.258,5.713-14.941,5.713
		c-2.815,0-5.581-0.537-8.212-1.594c-2.586-1.045-4.914-2.533-6.926-4.436c-4.233-4.002-6.562-9.393-6.562-15.186
		c0-5.161,1.672-9.745,4.978-13.626c2.523-2.964,5.245-4.609,6.296-5.18c0.508-0.273,0.99-0.524,1.455-0.759
		c1.454-0.748,2.828-1.451,4.715-2.935c1.008-0.761,2.08-1.976,2.537-5.054c1.588,1.893,3.434,4.023,4.847,4.933
		c1.251,0.828,2.537,1.404,3.777,1.965c1.175,0.529,2.388,1.077,3.591,1.844c0.002,0.001,0.049,0.023,0.049,0.023
		C-3.881,20.823-2.01,23.164-1.396,23.932z"/>
	<path fill="#8CC8E9" d="M-19.673,9.96c0.671,1.975,0.574,2.987,0.574,3.42c0,0.438-0.239,1.593-1.006,2.167
		c-0.343,0.246-0.439,0.439-0.439,0.484c0,0.193,0.439,0.335,0.439,0.773c0,0.529-0.246,1.588-2.797,4.142
		c-2.55,2.548-6.215,4.812-9.053,6.211c-2.844,1.394-4.192,1.297-4.573,0.627c-0.387-0.678,0.141-2.168,1.922-4.142
		c1.781-1.973,7.419-4.819,7.419-4.819l7.031-4.909l0.387-1.884"/>
	<path fill="#FFFFFF" d="M-19.673,9.915c-0.432,3.181-1.4,4.143-2.697,5.155c-2.167,1.639-4.29,2.646-4.772,2.89
		c-1.253,0.625-5.775,3.128-8.136,6.741c-0.723,1.109,0,1.542,0.142,1.639c0.143,0.097,1.78,0.29,5.296-1.833
		c3.516-2.117,5.058-3.373,7.031-5.445c1.065-1.103,1.207-1.729,1.207-2.019c0-0.334-0.238-0.484-0.625-0.58
		c-0.194-0.046-0.239-0.143,0-0.291c0.238-0.142,1.25-0.626,1.49-0.813c0.245-0.193,1.399-0.968,1.445-2.219
		C-19.242,11.89-19.338,11.025-19.673,9.915L-19.673,9.915z"/>
	<path fill="#FFFFFF" d="M-30.511,44.932c0.045-3.762,3.56-7.277,7.993-7.322c5.639-0.053,9.541,5.586,12.379,5.541
		c2.406-0.051,7.031-4.775,9.295-4.775c2.407,0,3.084,2.512,3.084,4.002c0,1.496-0.484,4.193-1.639,5.877
		c-1.155,1.682-1.877,2.309-3.225,2.213c-1.736-0.143-5.206-5.535-7.418-5.633c-2.793-0.098-8.864,5.824-13.631,5.824
		c-2.89,0-3.754-0.432-4.723-1.057C-29.84,48.588-30.563,47.047-30.511,44.932L-30.511,44.932z"/>
	<path fill="none" d="M-1.517,24.12c0.963,2.942,0.047,5.586-0.578,7.225s-3.852,8.766-21.288,16.573
		c-3.226,1.443-3.903,2.07-7.56,2.115c-3.084,0.053-4.677-1.014-5.683-1.924l-0.48,0.014c3.9,6.629,11.263,10.871,19.167,10.871
		c11.606,0,21.669-8.432,21.669-21.191c0-7.013-2.844-11.913-5.668-15.068C-1.839,23.101-1.701,23.558-1.517,24.12z"/>
</g>
<g>
	<path fill="#FFFFFF" d="M93.91,25.521h-6.636l0.011,12.418c0,3.629-1.557,6.562-5.185,6.562c-3.629,0-5.2-2.934-5.2-6.562V25.533
		H70.28l-0.001,12.407c0,7.17,4.61,12.982,11.782,12.982c7.169,0,11.849-5.812,11.849-12.982L93.91,25.521z"/>
	<rect x="153.752" y="17.955" fill="#FFFFFF" width="6.604" height="32.327"/>
	<g>
		<path fill="#FFFFFF" d="M165.23,19.147v-1.162h5.147v1.162h-1.883v5.118h-1.381v-5.118H165.23z"/>
		<path fill="#FFFFFF" d="M173.041,17.985l1.47,4.318h0.018l1.389-4.318h1.945v6.28h-1.293v-4.45h-0.019l-1.538,4.45h-1.066
			l-1.537-4.406h-0.019v4.406h-1.293v-6.28H173.041z"/>
	</g>
	<path fill="#FFFFFF" d="M64.883,25.251c-5.693-1.313-9.284,4.341-9.433,4.645c-0.074,0.148-0.076,0.235-0.329,0.229
		c-0.208-0.005-0.232-0.229-0.232-0.229l-0.707-4.326h-5.916v24.688h6.631V36.895c0-1.092,2.941-6.328,8.639-4.979
		c2.882,0.682,4.104,1.904,4.104,1.904s0-4.767,0-7.521C66.574,25.742,65.843,25.473,64.883,25.251z"/>
	<path fill="#FFFFFF" d="M102.909,58.391v-8.883c0.001,0,0.001,0,0.001,0l0.002-3.326c0,0,0.011-0.266,0.25-0.27
		c0.215-0.002,0.263,0.139,0.314,0.27c0.503,1.252,3.268,6.018,9.403,4.523c5.494-1.549,9.524-6.592,9.524-12.582
		c0-7.218-5.854-13.072-13.073-13.072S96.26,30.905,96.26,38.123c0,0,0,17.867,0,20.268H102.909z M109.338,31.506
		c3.655,0,6.615,2.964,6.615,6.617c0,3.654-2.96,6.617-6.615,6.617s-6.617-2.963-6.617-6.617
		C102.721,34.47,105.683,31.506,109.338,31.506z"/>
	<path fill="#FFFFFF" d="M144.422,50.271h6.648V38.123c0-7.218-5.851-13.072-13.07-13.072c-7.221,0-13.072,5.854-13.072,13.072
		c0,5.99,4.03,11.033,9.522,12.582c6.137,1.494,8.901-3.271,9.404-4.523c0.052-0.131,0.1-0.271,0.314-0.27
		c0.239,0.004,0.249,0.27,0.249,0.27 M144.61,38.123c0,3.654-2.963,6.617-6.616,6.617c-3.654,0-6.617-2.963-6.617-6.617
		c0-3.653,2.963-6.617,6.617-6.617C141.647,31.506,144.61,34.47,144.61,38.123z"/>
	<g>
		<path fill="#FFFFFF" d="M27.495,50.217h-7.543V17.941h8.094c9.8,0,17.233,1.798,17.233,16.139
			C45.279,48.281,37.406,50.217,27.495,50.217z M29.296,23.536H26.63v21.083l2.737,0.068c5.616,0,9.233-0.51,9.233-10.608
			C38.601,24.396,35.407,23.536,29.296,23.536z"/>
	</g>
</g>
<text transform="matrix(1 0 0 1 198.5879 50.375)" fill="#FFFFFF" font-family="'Lato-Thin'" font-size="13.7207">Česká republika</text>
</svg>
