<?xml version="1.0" encoding="utf-8"?>
<!-- Generator: Adobe Illustrator 15.0.0, SVG Export Plug-In . SVG Version: 6.00 Build 0)  -->
<!DOCTYPE svg PUBLIC "-//W3C//DTD SVG 1.1//EN" "http://www.w3.org/Graphics/SVG/1.1/DTD/svg11.dtd">
<svg version="1.1" id="Vrstva_1" xmlns="http://www.w3.org/2000/svg" xmlns:xlink="http://www.w3.org/1999/xlink" x="0px" y="0px"
	 width="242.167px" height="50px" viewBox="0 0 242.167 50" enable-background="new 0 0 242.167 50" xml:space="preserve">
<g>
	<path fill="#00598D" d="M32.763,9.3c-2.555-1.587-4.96-2.218-7.367-3.807c-1.497-1.013-3.566-3.418-5.303-5.488
		c-0.335,3.322-1.348,4.67-2.503,5.634c-2.458,1.926-3.999,2.506-6.115,3.661C9.694,10.216,0.012,15.997,0.012,28.42
		C0.012,40.846,10.462,50,22.067,50c11.612,0,21.676-8.434,21.676-21.191C43.742,16.042,34.305,10.26,32.763,9.3z"/>
	<path fill="#FFFFFF" d="M28.849,39.205c0.774,0,1.593,0.049,2.167,0.436c0.58,0.379,0.916,1.252,1.109,1.73
		c0.193,0.482,0,0.771-0.388,0.967c-0.336,0.193-0.385,0.096-0.723-0.531c-0.336-0.625-0.625-1.25-2.31-1.25s-2.22,0.572-3.035,1.25
		c-0.815,0.672-1.107,0.916-1.397,0.531c-0.291-0.389-0.192-0.775,0.336-1.252c0.529-0.484,1.4-1.252,2.22-1.594
		C27.647,39.156,28.081,39.205,28.849,39.205L28.849,39.205z"/>
	<path fill="#FFFFFF" d="M20.855,44.697c0.962,0.768,2.407,1.393,5.491,1.393c3.083,0,5.25-0.863,6.212-1.586
		c0.433-0.338,0.625-0.053,0.677,0.141c0.044,0.195,0.143,0.484-0.193,0.82c-0.244,0.238-2.458,1.779-5.058,2.025
		c-2.6,0.238-6.114,0.381-8.237-1.541c-0.335-0.34-0.239-0.82,0-1.014c0.238-0.195,0.432-0.336,0.722-0.336
		C20.759,44.6,20.708,44.6,20.855,44.697L20.855,44.697z"/>
	<path fill="#1075B6" d="M9.057,41.033c3.657-0.045,4.334-0.672,7.561-2.115c17.437-7.807,20.662-14.934,21.287-16.574
		c0.625-1.639,1.542-4.282,0.578-7.225c-0.185-0.562-0.322-1.02-0.421-1.385c-2.314-2.592-4.618-4.008-5.311-4.44
		c-2.503-1.586-4.96-2.212-7.367-3.806C23.886,4.528,21.817,2.071,20.081,0c-0.335,3.322-1.296,4.722-2.503,5.638
		C15.121,7.56,13.58,8.14,11.463,9.295C9.683,10.255,0,15.991,0,28.416c0,3.967,1.063,7.602,2.894,10.707l0.48-0.014
		C4.38,40.02,5.973,41.086,9.057,41.033z"/>
	<path fill="#FFFFFF" d="M32.751,9.294c-2.503-1.586-4.96-2.212-7.367-3.806C23.886,4.528,21.817,2.071,20.081,0
		c-0.335,3.322-1.296,4.722-2.503,5.638C15.121,7.56,13.58,8.14,11.463,9.295C9.683,10.255,0,15.991,0,28.416
		c0,3.967,1.063,7.602,2.894,10.707c3.9,6.629,11.264,10.871,19.167,10.871c11.606,0,21.669-8.432,21.669-21.191
		c0-7.013-2.844-11.913-5.668-15.068C35.747,11.143,33.444,9.727,32.751,9.294z M38.604,14.932
		c3.163,3.956,4.765,8.619,4.765,13.871c0,3.043-0.576,5.92-1.725,8.549c-1.086,2.492-2.644,4.705-4.642,6.566
		c-3.946,3.682-9.258,5.713-14.941,5.713c-2.814,0-5.581-0.537-8.212-1.594c-2.586-1.045-4.914-2.533-6.926-4.436
		C2.69,39.6,0.361,34.207,0.361,28.414c0-5.161,1.673-9.745,4.979-13.625c2.522-2.964,5.245-4.608,6.296-5.181
		c0.508-0.272,0.99-0.523,1.455-0.758c1.454-0.748,2.828-1.451,4.715-2.936c1.008-0.762,2.08-1.977,2.537-5.055
		c1.588,1.894,3.434,4.023,4.847,4.934c1.251,0.828,2.537,1.404,3.777,1.965c1.175,0.529,2.388,1.077,3.591,1.844
		c0.002,0.002,0.049,0.023,0.049,0.023C36.119,11.823,37.99,14.164,38.604,14.932z"/>
	<path fill="#8CC8E9" d="M20.327,0.959c0.671,1.975,0.573,2.987,0.573,3.42c0,0.438-0.238,1.594-1.006,2.167
		c-0.343,0.246-0.438,0.438-0.438,0.484c0,0.192,0.438,0.335,0.438,0.771c0,0.529-0.246,1.588-2.797,4.143
		c-2.55,2.548-6.215,4.812-9.053,6.211C5.2,19.55,3.852,19.453,3.471,18.783c-0.387-0.679,0.141-2.168,1.922-4.143
		c1.781-1.973,7.419-4.818,7.419-4.818l7.031-4.909l0.387-1.884"/>
	<path fill="#FFFFFF" d="M20.327,0.915c-0.433,3.182-1.4,4.143-2.697,5.154c-2.167,1.64-4.29,2.646-4.772,2.891
		c-1.253,0.625-5.774,3.128-8.136,6.741c-0.723,1.109,0,1.542,0.142,1.639c0.144,0.098,1.78,0.29,5.297-1.833
		c3.516-2.117,5.058-3.373,7.03-5.445c1.065-1.103,1.207-1.729,1.207-2.019c0-0.334-0.237-0.483-0.625-0.58
		c-0.193-0.046-0.238-0.144,0-0.291c0.238-0.142,1.25-0.626,1.49-0.813c0.245-0.192,1.399-0.967,1.445-2.219
		C20.758,2.889,20.662,2.024,20.327,0.915L20.327,0.915z"/>
	<path fill="#FFFFFF" d="M9.489,35.932c0.046-3.762,3.561-7.276,7.993-7.322c5.64-0.053,9.541,5.586,12.379,5.541
		c2.406-0.051,7.031-4.774,9.295-4.774c2.407,0,3.085,2.515,3.085,4.002c0,1.496-0.484,4.192-1.64,5.877
		c-1.156,1.685-1.877,2.312-3.225,2.213c-1.736-0.143-5.206-5.532-7.418-5.633c-2.793-0.099-8.864,5.824-13.631,5.824
		c-2.891,0-3.755-0.433-4.724-1.058C10.16,39.588,9.437,38.047,9.489,35.932L9.489,35.932z"/>
	<path fill="none" d="M38.483,15.12c0.963,2.942,0.047,5.586-0.578,7.225c-0.625,1.64-3.852,8.767-21.287,16.574
		c-3.227,1.442-3.903,2.07-7.561,2.115c-3.084,0.053-4.677-1.015-5.683-1.925l-0.48,0.015c3.9,6.629,11.264,10.871,19.167,10.871
		c11.606,0,21.669-8.433,21.669-21.19c0-7.014-2.844-11.914-5.668-15.069C38.161,14.1,38.299,14.557,38.483,15.12z"/>
</g>
<g enable-background="new    ">
	<path fill="#FFFFFF" d="M84.784,25.361c0,2.334-0.389,4.479-1.167,6.43c-0.778,1.952-1.872,3.633-3.281,5.043
		c-1.409,1.407-3.104,2.502-5.086,3.278c-1.981,0.779-4.184,1.168-6.605,1.168H56.513V9.442h12.132c2.422,0,4.624,0.393,6.605,1.178
		c1.981,0.785,3.677,1.879,5.086,3.28c1.409,1.402,2.502,3.079,3.281,5.031C84.395,20.884,84.784,23.027,84.784,25.361z
		 M78.707,25.361c0-1.747-0.231-3.314-0.693-4.701c-0.462-1.387-1.13-2.562-2.003-3.522c-0.874-0.962-1.931-1.699-3.171-2.213
		c-1.24-0.514-2.639-0.771-4.194-0.771h-6.187v22.414h6.187c1.556,0,2.954-0.256,4.194-0.77c1.24-0.515,2.297-1.252,3.171-2.213
		c0.873-0.961,1.541-2.138,2.003-3.523C78.476,28.676,78.707,27.109,78.707,25.361z"/>
	<path fill="#FFFFFF" d="M88.747,41.281V18.69h3.193c0.558,0,0.947,0.1,1.167,0.298c0.22,0.197,0.367,0.554,0.44,1.067l0.309,2.554
		c0.719-1.35,1.563-2.41,2.532-3.182c0.969-0.771,2.113-1.155,3.435-1.155c1.042,0,1.879,0.228,2.51,0.683l-0.353,4.073
		c-0.074,0.264-0.18,0.451-0.319,0.562c-0.14,0.109-0.327,0.165-0.562,0.165c-0.22,0-0.547-0.037-0.979-0.11
		c-0.433-0.073-0.855-0.11-1.266-0.11c-0.602,0-1.138,0.089-1.607,0.265c-0.469,0.176-0.892,0.43-1.266,0.76
		s-0.705,0.73-0.991,1.199c-0.286,0.471-0.554,1.007-0.804,1.607v13.916h-5.439V41.281z"/>
	<path fill="#FFFFFF" d="M110.39,18.69v14.356c0,1.379,0.319,2.447,0.958,3.203c0.639,0.756,1.596,1.133,2.873,1.133
		c0.939,0,1.82-0.209,2.643-0.627c0.822-0.418,1.6-0.994,2.333-1.729V18.69h5.438v22.591h-3.324c-0.719,0-1.174-0.33-1.365-0.992
		l-0.375-1.805c-0.47,0.471-0.954,0.898-1.453,1.289c-0.499,0.389-1.035,0.723-1.607,1c-0.572,0.279-1.182,0.492-1.828,0.639
		c-0.646,0.147-1.351,0.221-2.114,0.221c-1.233,0-2.323-0.209-3.27-0.627c-0.947-0.418-1.743-1.01-2.389-1.772
		s-1.134-1.668-1.464-2.719c-0.33-1.05-0.496-2.205-0.496-3.468V18.69H110.39z"/>
	<path fill="#FFFFFF" d="M130.009,48.656V18.69h3.324c0.705,0,1.168,0.33,1.388,0.991l0.44,2.092
		c0.909-1.042,1.955-1.887,3.137-2.532c1.182-0.646,2.565-0.969,4.15-0.969c1.233,0,2.359,0.257,3.379,0.771
		c1.021,0.514,1.901,1.259,2.644,2.234c0.741,0.977,1.313,2.18,1.717,3.611c0.403,1.431,0.604,3.071,0.604,4.92
		c0,1.689-0.228,3.252-0.683,4.691c-0.455,1.438-1.104,2.686-1.948,3.741c-0.846,1.056-1.865,1.884-3.062,2.478
		c-1.196,0.596-2.536,0.893-4.019,0.893c-1.276,0-2.359-0.195-3.248-0.584c-0.888-0.389-1.685-0.928-2.389-1.617v9.246H130.009z
		 M140.578,22.565c-1.131,0-2.097,0.239-2.896,0.716c-0.801,0.478-1.545,1.148-2.235,2.015v10.127
		c0.617,0.765,1.288,1.295,2.015,1.597c0.728,0.303,1.517,0.45,2.367,0.45c0.822,0,1.563-0.151,2.225-0.461
		c0.66-0.309,1.222-0.778,1.685-1.409c0.464-0.632,0.818-1.429,1.068-2.39c0.249-0.961,0.374-2.096,0.374-3.401
		c0-1.32-0.106-2.439-0.319-3.357c-0.213-0.917-0.517-1.662-0.914-2.235c-0.396-0.572-0.877-0.99-1.442-1.255
		C141.939,22.697,141.296,22.565,140.578,22.565z"/>
	<path fill="#FFFFFF" d="M169.794,41.281c-0.515,0-0.91-0.078-1.188-0.232c-0.278-0.153-0.499-0.465-0.661-0.936l-0.484-1.607
		c-0.571,0.515-1.129,0.968-1.672,1.355c-0.543,0.389-1.108,0.715-1.695,0.979c-0.588,0.267-1.215,0.463-1.883,0.597
		c-0.668,0.131-1.406,0.196-2.213,0.196c-0.955,0-1.836-0.129-2.643-0.385c-0.807-0.258-1.505-0.643-2.092-1.156
		c-0.587-0.512-1.042-1.151-1.365-1.916c-0.322-0.762-0.484-1.649-0.484-2.664c0-0.852,0.225-1.69,0.672-2.521
		c0.447-0.827,1.191-1.575,2.234-2.243c1.042-0.668,2.43-1.224,4.161-1.664s3.89-0.689,6.474-0.748v-1.321
		c0-1.513-0.322-2.632-0.969-3.358c-0.646-0.727-1.578-1.09-2.796-1.09c-0.881,0-1.61,0.104-2.19,0.309
		c-0.58,0.206-1.09,0.437-1.53,0.693s-0.841,0.488-1.2,0.693c-0.359,0.206-0.76,0.309-1.2,0.309c-0.382,0-0.704-0.099-0.969-0.297
		c-0.265-0.198-0.478-0.43-0.64-0.694l-0.969-1.739c2.598-2.378,5.726-3.566,9.379-3.566c1.321,0,2.504,0.217,3.545,0.649
		c1.043,0.432,1.924,1.035,2.644,1.806c0.719,0.771,1.267,1.691,1.642,2.763c0.373,1.072,0.561,2.246,0.561,3.523v14.268h-2.467
		V41.281z M161.669,37.891c1.117,0,2.082-0.203,2.896-0.605c0.814-0.404,1.609-1.018,2.389-1.84v-3.809
		c-1.586,0.074-2.91,0.209-3.975,0.408c-1.064,0.196-1.919,0.45-2.564,0.76c-0.646,0.307-1.108,0.668-1.388,1.078
		c-0.278,0.41-0.418,0.858-0.418,1.344c0,0.953,0.283,1.637,0.849,2.047C160.022,37.686,160.759,37.891,161.669,37.891z"/>
	<path fill="#FFFFFF" d="M182.873,8.562v32.719h-5.438V8.562H182.873z"/>
	<path fill="#FFFFFF" d="M187.518,38.287c0-0.455,0.084-0.889,0.253-1.301c0.169-0.41,0.4-0.762,0.693-1.057
		c0.293-0.293,0.646-0.527,1.058-0.703c0.41-0.178,0.851-0.266,1.319-0.266c0.47,0,0.906,0.088,1.312,0.266
		c0.403,0.176,0.757,0.41,1.058,0.703c0.301,0.295,0.539,0.646,0.716,1.057c0.176,0.412,0.265,0.846,0.265,1.301
		c0,0.469-0.089,0.906-0.265,1.309c-0.177,0.404-0.415,0.755-0.716,1.048s-0.653,0.524-1.058,0.692
		c-0.403,0.168-0.841,0.254-1.312,0.254c-0.469,0-0.909-0.086-1.319-0.254c-0.411-0.168-0.765-0.399-1.058-0.692
		s-0.524-0.644-0.693-1.048C187.602,39.193,187.518,38.756,187.518,38.287z"/>
	<path fill="#FFFFFF" d="M214.951,23.468c-0.16,0.205-0.318,0.367-0.473,0.484c-0.154,0.117-0.379,0.176-0.672,0.176
		c-0.279,0-0.551-0.084-0.814-0.253c-0.265-0.169-0.58-0.359-0.947-0.572c-0.366-0.213-0.803-0.404-1.31-0.573
		c-0.507-0.168-1.135-0.253-1.883-0.253c-0.954,0-1.791,0.173-2.511,0.518c-0.719,0.345-1.317,0.841-1.795,1.486
		c-0.478,0.646-0.832,1.428-1.066,2.346c-0.234,0.917-0.354,1.955-0.354,3.115c0,1.203,0.129,2.274,0.386,3.215
		s0.628,1.729,1.112,2.367c0.483,0.638,1.07,1.123,1.762,1.453c0.689,0.33,1.468,0.493,2.334,0.493c0.865,0,1.566-0.104,2.103-0.317
		c0.535-0.213,0.987-0.446,1.354-0.705c0.367-0.256,0.687-0.489,0.957-0.703c0.271-0.213,0.576-0.319,0.914-0.319
		c0.44,0,0.771,0.17,0.99,0.506l1.563,1.982c-0.603,0.704-1.255,1.295-1.959,1.771c-0.705,0.479-1.437,0.858-2.19,1.146
		c-0.757,0.285-1.535,0.486-2.334,0.605c-0.801,0.117-1.597,0.176-2.39,0.176c-1.396,0-2.708-0.262-3.94-0.781
		c-1.232-0.521-2.312-1.281-3.236-2.279s-1.655-2.221-2.19-3.666c-0.536-1.444-0.804-3.094-0.804-4.942
		c0-1.659,0.238-3.196,0.715-4.613c0.479-1.416,1.18-2.643,2.104-3.677c0.924-1.035,2.069-1.846,3.436-2.434
		c1.365-0.587,2.936-0.881,4.712-0.881c1.688,0,3.167,0.272,4.437,0.815c1.271,0.543,2.412,1.32,3.424,2.334L214.951,23.468z"/>
	<path fill="#FFFFFF" d="M236.221,20.937c0,0.382-0.065,0.756-0.198,1.123c-0.132,0.367-0.309,0.668-0.527,0.902L224.75,37.098
		h11.142v4.184h-17.438v-2.268c0-0.25,0.06-0.547,0.178-0.894c0.117-0.344,0.293-0.672,0.527-0.979l10.834-14.29h-10.9v-4.161
		h17.131L236.221,20.937L236.221,20.937z"/>
</g>
</svg>
