<?xml version="1.0" encoding="UTF-8"?>
<svg width="24px" height="43px" viewBox="0 0 24 43" version="1.1" xmlns="http://www.w3.org/2000/svg" xmlns:xlink="http://www.w3.org/1999/xlink">
    <!-- Generator: Sketch 49 (51002) - http://www.bohemiancoding.com/sketch -->
    <title>Location A Green</title>
    <desc>Created with Sketch.</desc>
    <defs></defs>
    <g id="Page-1" stroke="none" stroke-width="1" fill="none" fill-rule="evenodd">
        <g id="Portrait" transform="translate(-306.000000, -308.000000)">
            <g id="Location-A-Green" transform="translate(307.000000, 309.000000)">
                <path d="M20.219,18.187 C22.094,15.187 22.313,13.405 22.313,11 C22.313,4.925 17.125,0 11.125,0 C5.05,0 0,4.925 0,11 C0,13.405 0.188,15.187 2.063,18.187 C2.898,19.525 11.125,28.25 11.125,41.625 C11.125,28.25 19.383,19.525 20.219,18.187 Z" id="Imported-Layers" stroke="#00598E" fill-opacity="0.802394701" fill="#FFFFFF" stroke-linecap="round" stroke-linejoin="round"></path>
                <g id="Group" transform="translate(5.000000, 4.000000)" fill-rule="nonzero">
                    <g id="druplicon-vector">
                        <path d="M9.73568282,2.78805395 C8.97591777,2.31021195 8.26196769,2.12331407 7.54419971,1.64739884 C7.10132159,1.34296724 6.48472834,0.622350674 5.96930984,0 C5.87004405,0.998073218 5.56842878,1.4026975 5.22481645,1.69171484 C4.49559471,2.26974952 4.03744493,2.44315992 3.40748899,2.78998073 C2.87679883,3.06358382 0,4.79768786 0,8.52601156 C0,12.2543353 3.10778267,15 6.55726872,15 C10.0067548,15 13,12.4720617 13,8.6416185 C13,4.81117534 10.1938326,3.07707129 9.73568282,2.78805395 Z" id="Shape" fill="#00598E"></path>
                        <path d="M8.32376766,11.7195297 C8.54500266,11.7195297 8.78098665,11.7340312 8.9469129,11.8427923 C9.11283915,11.9515533 9.20870765,12.1962657 9.2640164,12.332217 C9.31932514,12.4681683 9.2640164,12.5497391 9.1533989,12.6041197 C9.0575304,12.6585002 9.0427814,12.6313099 8.9469129,12.4554796 C8.8510444,12.2796492 8.76623765,12.1020061 8.28320791,12.1020061 C7.80017817,12.1020061 7.6471573,12.2651477 7.41301693,12.4554796 C7.17887656,12.6458114 7.09591344,12.7128807 7.01110669,12.6041197 C6.92629994,12.4953586 6.95579794,12.3865976 7.10697519,12.2506462 C7.25815243,12.1146949 7.50888543,11.8971728 7.7430258,11.8011005 C7.97716617,11.7050283 8.10253267,11.7195297 8.32376766,11.7195297 Z" id="Shape" fill="#FFFFFF"></path>
                        <path d="M6.4395342,13.2243521 C6.73222554,13.4448297 7.17126254,13.6248863 8.10787481,13.6248863 C9.04448708,13.6248863 9.70206694,13.3750118 9.99475828,13.1692328 C10.127445,13.0736925 10.1859833,13.1545342 10.1996422,13.2096536 C10.2133011,13.264773 10.2425703,13.3474521 10.1411039,13.4448297 C10.0669555,13.5146476 9.39571668,13.9556026 8.6034988,14.0235832 C7.81128092,14.0915638 6.74588446,14.133822 6.10196353,13.5826281 C6.0004972,13.4870879 6.02781506,13.3474521 6.10196353,13.2923327 C6.176112,13.2372133 6.23465027,13.1967924 6.32050639,13.1967924 C6.40636252,13.1967924 6.39465486,13.1967924 6.4395342,13.2243521 Z" id="Shape" fill="#FFFFFF"></path>
                        <path d="M9.73568282,2.78841213 C8.99118943,2.31050874 8.26196769,2.12358684 7.54419971,1.64761048 C7.10132159,1.35855601 6.48472834,0.622430627 5.96930984,0 C5.87004405,0.998201439 5.58370044,1.41636691 5.22481645,1.69193217 C4.49559471,2.27004111 4.03744493,2.44347379 3.40748899,2.79033916 C2.87870778,3.0774666 0,4.79637718 0,8.52517986 C0,9.71608428 0.316886931,10.8067831 0.860939794,11.7394656 C2.01967695,13.7281603 4.2092511,15 6.55726872,15 C10.0086637,15 13,12.4717369 13,8.64080164 C13,6.53841213 12.1543319,5.06616136 11.3143906,4.11998972 C10.625257,3.34146968 9.94185022,2.91752312 9.73568282,2.78841213 Z M11.476652,4.47841727 C12.415859,5.66546763 12.8930984,7.06449126 12.8930984,8.64080164 C12.8930984,9.55421377 12.7212922,10.4175231 12.3814978,11.2076053 C12.058884,11.9552929 11.5950073,12.6181912 11.0013216,13.1789568 C9.82731278,14.2850719 8.25051395,14.8940134 6.55917768,14.8940134 C5.72305433,14.8940134 4.90220264,14.7321429 4.1195301,14.4141829 C3.35022026,14.1020041 2.65917768,13.6549332 2.06167401,13.0845324 C0.799853157,11.8820658 0.106901615,10.2633607 0.106901615,8.52517986 C0.106901615,6.97777492 0.605139501,5.60187564 1.58634361,4.43602261 C2.33656388,3.54573484 3.14596182,3.05241521 3.45712188,2.88283659 C3.60983847,2.79997431 3.75110132,2.72482014 3.88854626,2.65352004 C4.31997063,2.42998458 4.72848752,2.21801131 5.289721,1.77479445 C5.58942731,1.5454779 5.9082232,1.18126927 6.04375918,0.258221994 C6.51718062,0.826695786 7.0650514,1.46454265 7.48502203,1.73818088 C7.85726872,1.98676773 8.23906021,2.16020041 8.60748899,2.327852 C8.95682819,2.48586845 9.31762115,2.65159301 9.67459618,2.88090956 C9.67459618,2.88090956 9.68795888,2.88861768 9.68795888,2.88861768 C10.7359765,3.54573484 11.2933921,4.24910072 11.476652,4.47841727 Z" id="Shape" fill="#004975"></path>
                        <path d="M2.78647907,10.5413826 C2.80176899,9.4618101 3.84721726,8.45236367 5.16597286,8.43760028 C6.84404158,8.4228369 8.00416425,10.0431184 8.85084357,10.028355 C9.56755857,10.0135916 10.9436514,8.65905105 11.6183191,8.65905105 C12.3350341,8.65905105 12.5357143,9.37876606 12.5357143,9.80690421 C12.5357143,10.2350424 12.3923713,11.0101201 12.0483481,11.4954663 C11.7043249,11.9808126 11.490266,12.1598187 11.0889056,12.1321373 C10.5728708,12.091538 9.54080121,10.5413826 8.88142341,10.5118558 C8.05003401,10.4841745 6.24391222,12.1875 4.82577214,12.1875 C3.96571414,12.1875 3.70769674,12.0620112 3.42101074,11.8830052 C2.98524802,11.5932738 2.77118915,11.1503722 2.78647907,10.5413826 Z" id="Shape" fill="#FFFFFF"></path>
                    </g>
                </g>
            </g>
        </g>
    </g>
</svg>