<svg viewBox="0 0 24 43" xmlns="http://www.w3.org/2000/svg"><title>Drupal Marker</title><g fill="none" fill-rule="evenodd"><path d="M21.219 19.187c1.875-3 2.094-4.782 2.094-7.187 0-6.075-5.188-11-11.188-11C6.05 1 1 5.925 1 12c0 2.405.188 4.187 2.063 7.187.835 1.338 9.062 10.063 9.062 23.438 0-13.375 8.258-22.1 9.094-23.438z" fill="#fff" fill-opacity=".802" stroke="#00598E" stroke-linecap="round" stroke-linejoin="round"/><g fill-rule="nonzero"><path d="M15.736 7.788c-.76-.478-1.474-.665-2.192-1.14-.443-.305-1.06-1.026-1.575-1.648-.099.998-.4 1.403-.744 1.692-.73.578-1.188.751-1.817 1.098C8.877 8.064 6 9.798 6 13.526 6 17.254 9.108 20 12.557 20 16.007 20 19 17.472 19 13.642c0-3.83-2.806-5.565-3.264-5.854z" fill="#00598E"/><path d="M14.324 16.72c.221 0 .457.015.623.123.166.109.262.354.317.49.055.136 0 .217-.11.272-.096.054-.111.027-.207-.15-.096-.175-.18-.353-.664-.353s-.636.164-.87.354c-.234.19-.317.257-.402.149-.085-.11-.055-.218.096-.354.151-.136.402-.353.636-.45.234-.096.36-.081.58-.081zm-1.884 1.504c.292.22.731.4 1.668.4s1.594-.25 1.887-.455c.132-.096.19-.015.205.04s.043.138-.059.235c-.074.07-.745.511-1.538.58s-1.857.11-2.501-.442c-.102-.095-.074-.235 0-.29s.133-.096.218-.096c.086 0 .075 0 .12.028z" fill="#fff"/><path d="M15.736 7.788c-.745-.478-1.474-.664-2.192-1.14-.443-.29-1.06-1.026-1.575-1.648-.099.998-.385 1.416-.744 1.692-.73.578-1.188.751-1.817 1.098C8.878 8.077 6 9.796 6 13.525c0 1.191.317 2.282.86 3.214A6.632 6.632 0 0 0 12.558 20C16.01 20 19 17.473 19 13.642c0-2.103-.846-3.575-1.686-4.521-.689-.779-1.372-1.203-1.578-1.332zm1.74 1.69c.94 1.188 1.417 2.587 1.417 4.163 0 .913-.172 1.777-.512 2.567a5.925 5.925 0 0 1-1.38 1.971c-1.174 1.106-2.75 1.715-4.442 1.715a6.454 6.454 0 0 1-2.44-.48 6.51 6.51 0 0 1-2.057-1.33 6.241 6.241 0 0 1-1.955-4.559c0-1.547.498-2.923 1.48-4.089a6.813 6.813 0 0 1 1.87-1.553c.153-.083.294-.158.432-.23.43-.223.84-.435 1.4-.878.3-.23.62-.594.755-1.517.473.569 1.021 1.206 1.441 1.48.372.249.754.422 1.123.59.349.158.71.324 1.067.553l.013.008c1.048.657 1.605 1.36 1.789 1.59z" fill="#004975"/><path d="M8.787 15.541c.015-1.08 1.06-2.089 2.379-2.104 1.678-.015 2.838 1.606 3.685 1.591.717-.015 2.093-1.37 2.767-1.37.717 0 .918.72.918 1.149 0 .428-.144 1.203-.488 1.688-.344.486-.558.665-.959.637-.516-.04-1.548-1.59-2.208-1.62-.83-.028-2.637 1.675-4.055 1.675-.86 0-1.118-.125-1.405-.304-.436-.29-.65-.733-.635-1.342z" fill="#fff"/></g></g></svg>